<svg width="512" height="512" xmlns="http://www.w3.org/2000/svg" xml:space="preserve" version="1.1">

 <g>
  <title>Layer 1</title>
  <path fill="#3b429f" stroke="null" id="svg_1" d="m493.98319,422.20656l-166.39166,-167.35017l166.77213,-165.19c6.84844,-6.86174 6.84844,-18.04383 0,-24.90557l-47.43177,-47.77803c-3.2974,-3.3038 -7.7362,-5.08277 -12.42865,-5.08277c-4.69245,0 -9.13125,1.90604 -12.42865,5.08277l-166.01119,164.68172l-166.26483,-164.55465c-3.2974,-3.3038 -7.7362,-5.08277 -12.42865,-5.08277c-4.69245,0 -9.13125,1.90604 -12.42865,5.08277l-47.30494,47.77803c-6.84844,6.86174 -6.84844,18.04383 0,24.90557l166.77213,165.19l-166.26483,167.2231c-3.2974,3.3038 -5.19974,7.75122 -5.19974,12.45278c0,4.70156 1.77552,9.14898 5.19974,12.45278l47.43177,47.77803c3.42422,3.43087 7.86302,5.20984 12.42865,5.20984c4.4388,0 9.00443,-1.6519 12.42865,-5.20984l165.63072,-166.71483l165.75754,166.58776c3.42422,3.43087 7.86302,5.20984 12.42865,5.20984c4.4388,0 9.00443,-1.6519 12.42865,-5.20984l47.43177,-47.77803c3.2974,-3.3038 5.19974,-7.75122 5.19974,-12.45278c-0.12682,-4.57449 -2.02917,-9.02192 -5.32656,-12.32572z"/>
 </g>
</svg>