<svg width="122" height="122" xmlns="http://www.w3.org/2000/svg" data-name="Layer 1">
 <title>delete</title>

 <g>
  <title>Layer 1</title>
  <path stroke="null" class="cls-1" d="m19.80959,37.21738l83.04505,0a8.35623,8.25001 0 0 1 1.98958,0.15714a5.8991,5.82412 0 0 1 2.86499,1.53215a5.40171,5.33304 0 0 1 1.63146,3.28036a7.61014,7.5134 0 0 1 -0.05969,1.41429l-7.07296,72.33493l0,0l0,0.12768l0,0.275l0,0a7.02322,6.93394 0 0 1 -0.19896,0.88393l0,0l0,0.05893l0,0a5.85931,5.78483 0 0 1 -5.4415,3.99733l-70.64002,0a6.13785,6.05983 0 0 1 -1.24349,-0.18661a6.13785,6.05983 0 0 1 -1.15396,-0.47143l0,0a6.1478,6.06965 0 0 1 -3.06395,-4.79286l-6.96353,-72.17779a7.64993,7.55269 0 0 1 -0.05969,-1.63036a5.34202,5.27412 0 0 1 1.62151,-3.23125a5.96874,5.89287 0 0 1 2.98437,-1.55179a8.89342,8.78037 0 0 1 1.78067,-0.12768l-0.0199,0.10804zm-5.49124,-27.85361l31.30603,0l0,-2.75l0,0a2.42729,2.39643 0 0 1 0,-0.26518a5.96874,5.89287 0 0 1 1.75083,-3.92858l0,0a5.96874,5.89287 0 0 1 4.18806,-1.69911l19.26908,0l0.29844,0a5.96874,5.89287 0 0 1 5.6703,5.89287l0,0l0,0l0,2.75l31.83327,0l0.38797,0a4.67551,4.61608 0 0 1 4.28754,4.3509c0,0.17679 0,0.31429 0,0.49107l0,9.68394a2.57651,2.54375 0 0 1 -2.57651,2.54375l-99.45908,0a2.57651,2.54375 0 0 1 -2.57651,-2.51429l0,-9.90984l0,0a1.55187,1.53215 0 0 1 0,-0.30446l0,0a4.69541,4.63572 0 0 1 3.85978,-4.26251a10.34581,10.2143 0 0 1 1.76078,-0.07857zm41.88065,51.75901a4.74515,4.68483 0 0 1 9.44056,0l0,36.33934a4.74515,4.68483 0 0 1 -9.44056,0l0,-36.33934zm23.60636,-0.19643a4.55614,4.49822 0 0 1 4.97395,-3.98751a4.44671,4.39019 0 0 1 4.4865,4.38036l-1.98958,36.33934a4.54619,4.4884 0 0 1 -4.97395,3.98751a4.44671,4.39019 0 0 1 -4.4865,-4.38036l1.98958,-36.33934zm-46.23783,0.39286a4.43676,4.38036 0 0 1 4.47655,-4.38036a4.55614,4.49822 0 0 1 4.97395,3.98751l1.98958,36.33934a4.44671,4.39019 0 0 1 -4.4865,4.38036a4.54619,4.4884 0 0 1 -4.97395,-3.98751l-1.98958,-36.33934l0.00995,0z" fill-rule="evenodd" id="svg_1" fill="#ffffff"/>
 </g>
</svg>